<?xml version="1.0" encoding="UTF-8"?><svg id="uuid-f462876c-0d98-4c8c-bb40-768862efcf61" xmlns="http://www.w3.org/2000/svg" width="24" height="26" viewBox="0 0 24 26"><defs><style>.uuid-d07dec16-c124-4ee8-824d-28c287c0b8e4{fill:#1f2f50;fill-rule:evenodd;}</style></defs><path id="uuid-99f46889-b825-4918-9855-8653ca1424cd" class="uuid-d07dec16-c124-4ee8-824d-28c287c0b8e4" d="M11.84,16.25c1.79.05,3.29-1.36,3.34-3.16.05-1.79-1.36-3.29-3.16-3.34-1.79-.05-3.29,1.36-3.34,3.16,0,.03,0,.06,0,.09-.02,1.77,1.39,3.22,3.16,3.25ZM5.37,5.85c1.07-1.01,2.37-1.73,3.79-2.11l1.26-3.74h3.16l1.26,3.74c1.39.44,2.68,1.16,3.79,2.11l3.79-.81,1.58,2.92-2.53,2.93c.13.7.18,1.4.16,2.11,0,.65-.16,1.46-.16,2.11l2.53,2.93-1.58,2.92-3.79-.81c-1.07,1.01-2.37,1.73-3.79,2.11l-1.26,3.74h-3.16l-1.26-3.74c-1.39-.44-2.68-1.16-3.79-2.11l-3.79.81-1.58-2.93,2.53-2.93c-.13-.7-.18-1.4-.16-2.11,0-.65.16-1.46.16-2.11L0,7.96l1.58-2.92,3.79.81Z"/></svg>