<?xml version="1.0" encoding="UTF-8"?>
<svg id="Dimensions" xmlns="http://www.w3.org/2000/svg" xmlns:xlink="http://www.w3.org/1999/xlink" viewBox="0 0 75 75">
  <defs>
    <style>
      .cls-1 {
        fill: none;
      }

      .cls-2 {
        fill: #1f2f50;
      }

      .cls-3 {
        clip-path: url(#clippath);
      }
    </style>
    <clipPath id="clippath">
      <rect class="cls-1" width="75" height="75"/>
    </clipPath>
  </defs>
  <g class="cls-3">
    <g id="Grupo_1081-2" data-name="Grupo 1081-2">
      <path id="Trazado_776" data-name="Trazado 776" class="cls-2" d="M0,39.801v-2.926c.4-2.029,1.504-3.852,3.116-5.148.938-.746.942-.754.114-1.6-2.088-1.996-3.075-4.882-2.648-7.738.368-2.955,2.318-5.475,5.087-6.571.495-.223.717-.428.617-1.025-.121-.921-.057-1.858.189-2.754,1.1-4.553,5.683-7.352,10.236-6.251.963.233,1.877.632,2.702,1.18.576.372.793.3,1.18-.245,1.65-2.441,4.466-3.83,7.407-3.653,2.269.097,4.409,1.086,5.954,2.751,7.153,7.19,14.323,14.364,21.509,21.521.176.176.312.427.664.484v-.557c-.088-1.533.011-3.07.293-4.579,1.206-5.06,6.286-8.184,11.346-6.978,4.297,1.024,7.305,4.898,7.234,9.315-.117,6.508-.031,13.019-.032,19.529-.029,4.702-1.26,9.318-3.576,13.41-2.368,4.058-5.502,7.616-9.229,10.477-6.353,5.343-14.745,7.602-22.922,6.169-6.124-.98-11.745-3.98-15.967-8.523-6.702-6.913-13.416-13.817-20.141-20.71-1.586-1.499-2.679-3.444-3.133-5.578M68.567,35.11c0-3.39.01-6.779,0-10.169.024-1.453-1.015-2.706-2.447-2.952-1.396-.301-2.799.475-3.286,1.817-.217.518-.324,1.076-.312,1.637.008,3.39.013,6.779,0,10.169.064,1.637-1.122,3.056-2.744,3.285-1.159.167-2.32-.286-3.061-1.193-9.011-9.025-18.028-18.045-27.051-27.06-.233-.249-.484-.481-.751-.694-.774-.562-1.823-.56-2.594.006-.753.558-1.035,1.552-.688,2.422.229.567.591,1.071,1.054,1.47,4.967,4.964,9.933,9.931,14.9,14.9.301.285.576.596.822.929,1.003,1.455.637,3.448-.818,4.451-.306.211-.646.367-1.005.461-1.262.321-2.596-.12-3.417-1.13-6.773-6.78-13.549-13.555-20.328-20.326-.25-.267-.521-.514-.809-.739-.77-.517-1.78-.506-2.538.029-.733.534-1.026,1.488-.719,2.342.228.619.61,1.169,1.11,1.6,6.673,6.675,13.344,13.35,20.015,20.024.224.224.457.442.661.683,1.146,1.34.989,3.356-.351,4.502-.323.276-.698.486-1.103.615-1.265.408-2.651.011-3.507-1.006-6.166-6.183-12.338-12.357-18.517-18.523-.275-.31-.592-.579-.942-.8-.781-.457-1.764-.379-2.464.194-.703.575-.949,1.541-.609,2.383.232.566.594,1.069,1.056,1.47,6.035,6.035,12.068,12.07,18.1,18.106.283.269.547.556.79.861,1.071,1.406.8,3.414-.605,4.485-.119.091-.244.173-.375.246-1.355.749-3.049.446-4.062-.725-3.815-3.806-7.627-7.616-11.434-11.429-.218-.23-.448-.449-.689-.654-.752-.595-1.802-.638-2.6-.106-.799.538-1.117,1.558-.767,2.455.175.483.461.918.834,1.271,1.667,1.711,3.333,3.425,5,5.142,5.458,5.61,10.87,11.266,16.392,16.811,3.796,3.821,8.916,6.035,14.3,6.182,4.514.211,8.983-.973,12.8-3.391,2.423-1.646,4.628-3.592,6.562-5.793,3.986-4.045,6.211-9.503,6.188-15.182.036-3.023.006-6.047.005-9.071"/>
      <path id="Trazado_777" data-name="Trazado 777" class="cls-2" d="M0,58.384c.528-1.706,2.339-2.661,4.045-2.133.016.005.032.01.049.015,1.118.352,1.964,1.273,2.22,2.417.62,2.201,1.985,4.119,3.861,5.427,1.059.648,2.192,1.167,3.374,1.546,1.667.569,2.556,2.382,1.987,4.049-.13.382-.332.735-.594,1.041-.899,1.047-2.358,1.418-3.648.928-5.133-1.475-9.216-5.376-10.922-10.437-.117-.32-.248-.634-.372-.95v-1.9"/>
      <path id="Trazado_778" data-name="Trazado 778" class="cls-2" d="M44.625,0c2.549.769,4.897,2.092,6.877,3.873,2.221,2.108,3.826,4.781,4.642,7.732.545,1.681-.377,3.486-2.058,4.03-1.653.535-3.431-.346-4.006-1.985-.214-.517-.37-1.057-.584-1.574-1.106-2.818-3.476-4.95-6.395-5.751-1.167-.262-2.107-1.125-2.468-2.265-.512-1.667.193-3.029,2.09-4.061h1.902Z"/>
    </g>
  </g>
</svg>