<?xml version="1.0" encoding="UTF-8"?><svg id="uuid-2736b5c9-8c45-41a0-ae24-d260d23c63f4" xmlns="http://www.w3.org/2000/svg" width="32" height="41.22" viewBox="0 0 32 41.22"><defs><style>.uuid-5767dbc5-8b1a-47b6-8e83-ab0b7dde572a{fill:#202f50;}.uuid-7fd00e53-0961-4938-b088-83139b6723b1{fill:#708fc7;}</style></defs><path id="uuid-5a08d41d-e363-49fd-bb56-1f483e99df91" class="uuid-7fd00e53-0961-4938-b088-83139b6723b1" d="M5.96,10.27c3.21-5.55,10.3-7.44,15.85-4.24,1.76,1.02,3.22,2.48,4.24,4.24h4.94C27.78,1.99,18.47-2.12,10.19,1.09,5.98,2.72,2.65,6.05,1.01,10.27h4.95Z"/><path id="uuid-cea937f9-f299-409c-b321-cf9b4d7d841b" class="uuid-5767dbc5-8b1a-47b6-8e83-ab0b7dde572a" d="M27.5,15.82c.02.27.03.55.03.82,0,6.61-11.53,17.97-11.53,17.97,0,0-11.53-11.36-11.53-17.98,0-.28.01-.55.03-.82H.02c-.01.25-.02.51-.02.76,0,9.17,15.98,24.62,16,24.64,0,0,16-15.47,16-24.64,0-.25,0-.51-.02-.76h-4.48Z"/></svg>