<?xml version="1.0" encoding="UTF-8"?><svg id="uuid-4d61edf5-2d39-44b1-b834-566714a89427" xmlns="http://www.w3.org/2000/svg" width="29.8" height="29.82" viewBox="0 0 29.8 29.82"><defs><style>.uuid-37dea308-3d4a-40d4-8f2e-69635a38cc61{fill:#fff;}</style></defs><g id="uuid-270e982f-24fa-4a8a-821e-66b7d7d4014e"><g id="uuid-4dd9402b-b652-40a7-8de2-dcf55fa74adb"><path class="uuid-37dea308-3d4a-40d4-8f2e-69635a38cc61" d="M29.76,9.27c-.29-1.86-1.92-3.21-3.82-3.17h-8.53v-2.21c.07-1.86-1.21-3.5-3.03-3.9l-.08-.04H3.07C2.01.17,1.07.8.5,1.72c-.24.41-.41.86-.5,1.33v26.7c.13.01.26.03.4.03h16.87s.01,0,.03-.01h12.1q.41,0,.41-.42V9.76c0-.16-.01-.33-.04-.49ZM7.42,23.21c0,.23-.11.28-.31.28h-1.54c-.5.01-1.01,0-1.51.01-.23,0-.33-.07-.33-.32.01-.6.01-1.21,0-1.8,0-.21.08-.29.29-.29h3.1c.2,0,.29.07.29.27-.01.62-.01,1.25,0,1.86ZM7.42,18.24c0,.24-.11.3-.33.3h-1.54c-.49,0-.99-.01-1.48,0-.24,0-.34-.05-.33-.3.01-.61,0-1.21,0-1.8,0-.21.07-.3.28-.3,1.05.01,2.08.01,3.11,0,.21,0,.29.09.29.3-.01.6-.01,1.21,0,1.8ZM7.42,13.25c0,.23-.08.32-.31.32-1.03-.01-2.05-.01-3.09,0-.23,0-.29-.09-.29-.32.01-.58.01-1.18,0-1.78,0-.23.08-.33.32-.32.52.01,1.02,0,1.54,0s.98.01,1.48,0c.24-.01.34.07.34.33-.01.58-.01,1.18,0,1.76ZM7.42,8.32c0,.21-.07.29-.29.29h-3.1c-.21,0-.29-.08-.29-.29.01-.6.01-1.21,0-1.8,0-.25.11-.32.33-.32.5.01,1.01,0,1.51,0h0s1.54.01,1.54.01c.23-.01.31.08.31.3-.01.6-.01,1.21,0,1.8ZM13.58,23.2c.01.24-.09.3-.3.3-.5-.01-1.01,0-1.51,0s-1.01-.01-1.51,0c-.21,0-.3-.07-.3-.29.01-.61.01-1.22,0-1.83,0-.21.09-.28.3-.28h3.02c.21-.01.3.07.3.29v1.8ZM13.58,18.26c.01.23-.09.29-.3.29h-1.54c-.5.01-.99,0-1.48.01-.23,0-.3-.09-.3-.32.01-.6.01-1.19,0-1.79,0-.24.09-.3.32-.3h3.01c.23-.01.3.08.3.3v1.8ZM13.6,13.26c0,.21-.09.29-.3.29h-3.05c-.21,0-.29-.08-.29-.29.01-.61.01-1.22,0-1.83,0-.21.09-.29.29-.29,1.02.01,2.04.01,3.05,0,.23,0,.3.08.3.29-.01.61-.01,1.22,0,1.83ZM13.6,8.32c0,.2-.08.29-.29.29h-3.05c-.21,0-.29-.08-.29-.29v-1.8c-.01-.25.09-.32.33-.32.5.01,1.01,0,1.51,0s.98.01,1.48,0c.23,0,.3.09.3.32-.01.6-.01,1.21,0,1.8ZM20.96,23.27c0,.17-.07.26-.25.25h-1.9c-.19,0-.25-.08-.25-.27v-1.88c0-.17.07-.25.24-.25h1.92c.17,0,.24.08.24.25v1.9ZM20.96,18.3c0,.23-.09.29-.29.28h-1.84c-.2,0-.28-.08-.27-.28v-1.86c0-.19.07-.28.25-.27h1.9c.19,0,.25.08.25.27v1.86ZM20.96,13.31c0,.19-.08.27-.27.27h-1.88c-.19,0-.26-.09-.25-.27v-1.87c0-.2.08-.28.28-.28.62.01,1.23.01,1.86,0,.2,0,.27.09.27.29v1.86ZM26.04,23.24c0,.19-.07.27-.25.27-.64-.01-1.26-.01-1.9,0-.19,0-.25-.09-.25-.27v-1.9c0-.17.08-.25.24-.25h1.92c.17,0,.25.09.24.25v1.9ZM26.04,18.27c0,.23-.09.29-.29.29-.31-.01-.6,0-.9,0s-.62-.01-.94,0c-.2,0-.28-.09-.27-.29v-1.86c0-.19.07-.26.25-.26h1.9c.19,0,.25.08.25.26v1.86ZM26.04,13.29c0,.19-.07.27-.25.27h-1.9c-.19,0-.25-.08-.25-.27v-1.86c0-.2.08-.28.28-.28h1.86c.2,0,.28.08.27.28v1.86Z"/></g></g></svg>