<?xml version="1.0" encoding="UTF-8"?><svg id="uuid-83bc92ec-8240-43c1-8494-87d975d67b82" xmlns="http://www.w3.org/2000/svg" width="29.92" height="30" viewBox="0 0 29.92 30"><defs><style>.uuid-0154b29c-6344-41d3-8d01-d07224e7d2c4{fill:#fff;fill-rule:evenodd;}</style></defs><path id="uuid-a9d2e5cd-5af3-47fc-b44d-6b231a20eec8" class="uuid-0154b29c-6344-41d3-8d01-d07224e7d2c4" d="M28.1,26.19h-9.4c0,2.08-1.68,3.76-3.76,3.76s-3.76-1.68-3.76-3.76H1.78c-.79-.02-1.48-.55-1.7-1.31-.22-.74,0-1.54.57-2.06,1.89-1.41,3-3.63,3.01-5.98v-5.61C3.66,5,8.71-.05,14.94-.05c6.23,0,11.28,5.05,11.28,11.28v5.61c0,2.36,1.12,4.57,3.01,5.98.63.48.86,1.32.56,2.06-.22.76-.9,1.29-1.69,1.31Z"/></svg>