<?xml version="1.0" encoding="UTF-8"?><svg id="Dimensions" xmlns="http://www.w3.org/2000/svg" width="29.92" height="30" viewBox="0 0 29.92 30"><defs><style>.cls-1{fill:#202f50;fill-rule:evenodd;}</style></defs><path id="Trazado_740" class="cls-1" d="M28.1,26.24h-9.4c0,2.08-1.68,3.76-3.76,3.76s-3.76-1.68-3.76-3.76H1.78c-.79-.02-1.48-.55-1.7-1.31-.22-.74,0-1.54.57-2.06,1.89-1.41,3-3.63,3.01-5.98v-5.61C3.66,5.05,8.71,0,14.94,0c6.23,0,11.28,5.05,11.28,11.28v5.61c0,2.36,1.12,4.57,3.01,5.98.63.48.86,1.32.56,2.06-.22.76-.9,1.29-1.69,1.31Z"/></svg>