<?xml version="1.0" encoding="UTF-8"?><svg id="uuid-c542825c-3399-409c-8294-4dfe3f9d4a65" xmlns="http://www.w3.org/2000/svg" width="34" height="30" viewBox="0 0 34 30"><defs><style>.uuid-13018fd1-6910-4b5e-b9fe-3783c381a739{fill:#fff;}</style></defs><g id="uuid-7a2b72b7-bbb0-43ba-a319-c4a82c8e076c"><circle id="uuid-29554aca-3f08-48f7-83ab-f3f6f17dc0eb" class="uuid-13018fd1-6910-4b5e-b9fe-3783c381a739" cx="3" cy="2.95" r="3"/><circle id="uuid-87c33e32-f99e-45b0-8d88-4eeaec80aab2" class="uuid-13018fd1-6910-4b5e-b9fe-3783c381a739" cx="3" cy="26.95" r="3"/><circle id="uuid-58e3c5c9-449d-44a1-be77-d6a7c97709d1" class="uuid-13018fd1-6910-4b5e-b9fe-3783c381a739" cx="3" cy="14.95" r="3"/><path id="uuid-b8567720-b968-4e93-9b4c-88389324b954" class="uuid-13018fd1-6910-4b5e-b9fe-3783c381a739" d="M11.5,1.45h21c.83,0,1.5.67,1.5,1.5h0c0,.83-.67,1.5-1.5,1.5H11.5c-.83,0-1.5-.67-1.5-1.5h0c0-.83.67-1.5,1.5-1.5Z"/><path id="uuid-b78951a1-ac59-444c-bb95-2d43d85f9c9e" class="uuid-13018fd1-6910-4b5e-b9fe-3783c381a739" d="M11.5,25.45h21c.83,0,1.5.67,1.5,1.5h0c0,.83-.67,1.5-1.5,1.5H11.5c-.83,0-1.5-.67-1.5-1.5h0c0-.83.67-1.5,1.5-1.5Z"/><path id="uuid-3bcb3484-3354-42f9-8a39-4814fd22dc04" class="uuid-13018fd1-6910-4b5e-b9fe-3783c381a739" d="M11.5,13.45h21c.83,0,1.5.67,1.5,1.5h0c0,.83-.67,1.5-1.5,1.5H11.5c-.83,0-1.5-.67-1.5-1.5h0c0-.83.67-1.5,1.5-1.5Z"/></g></svg>