<svg id="Grupo_910" data-name="Grupo 910" xmlns="http://www.w3.org/2000/svg" xmlns:xlink="http://www.w3.org/1999/xlink" width="99.189" height="99.174" viewBox="0 0 99.189 99.174">
  <defs>
    <clipPath id="clip-path">
      <rect id="Rectángulo_1708" data-name="Rectángulo 1708" width="99.189" height="99.174" fill="#718fc6"/>
    </clipPath>
  </defs>
  <g id="Grupo_909" data-name="Grupo 909" clip-path="url(#clip-path)">
    <path id="Trazado_678" data-name="Trazado 678" d="M257.091,241.932a3.282,3.282,0,0,1-1.691-3.293c.067-4.818.025-9.638.026-14.458a11.492,11.492,0,0,1,1.413-5.659c2.788-5.037,5.569-10.079,8.386-15.1a6.59,6.59,0,0,1,6.6-3.432,6.311,6.311,0,0,1,5.586,5.495,24.681,24.681,0,0,1-.379,5.114c-.065.688-.188,1.369-.321,2.315,1.529-1.534,2.888-2.9,4.248-4.26.994-1,1.946-2.04,3-2.968a3.2,3.2,0,0,0,1.008-2.318c.532-5.453,1.03-10.911,1.677-16.351a6.755,6.755,0,0,1,6.709-5.961,7.011,7.011,0,0,1,7,5.431,4.168,4.168,0,0,0,.22.559V211.11a17.2,17.2,0,0,1-2.644,6.1c-5.145,7.627-10.21,15.308-15.346,22.941a11.876,11.876,0,0,1-1.85,1.777Z" transform="translate(-201.381 -142.757)" fill="#718fc6"/>
    <path id="Trazado_679" data-name="Trazado 679" d="M19.829,242.095a11.908,11.908,0,0,1-1.85-1.779c-5.254-7.812-10.445-15.667-15.7-23.482A13,13,0,0,1,0,209.309c.034-6.93,0-13.86.016-20.79a6.825,6.825,0,0,1,5.115-7c4.713-1.2,8.579,1.779,8.995,6.808.434,5.251.987,10.492,1.541,15.731a2.814,2.814,0,0,0,.752,1.533c2.177,2.25,4.408,4.446,6.624,6.657.217.217.456.412.8.718-.26-1.825-.465-3.494-.742-5.151a6.353,6.353,0,0,1,4.064-7.165,6.168,6.168,0,0,1,7.9,2.518c3.044,5.3,6.047,10.622,8.862,16.042a12.09,12.09,0,0,1,1.157,5.064c.15,4.885.02,9.778.073,14.667a2.891,2.891,0,0,1-1.9,3.148Z" transform="translate(0 -142.92)" fill="#718fc6"/>
    <path id="Trazado_680" data-name="Trazado 680" d="M108.479,7.922a67.167,67.167,0,0,1,5.634-4.906C124.7-4.353,140.451,2.56,142.081,15.37a24.585,24.585,0,0,1-8.369,22.276c-7.677,6.923-15.65,13.517-23.5,20.244a2.237,2.237,0,0,1-3.315.01C99.016,51.148,91.04,44.5,83.309,37.587a25.061,25.061,0,0,1-8.472-21.26c.5-7.476,6.3-13.934,13.82-15.714A17.316,17.316,0,0,1,105.873,5.4q1.233,1.229,2.471,2.455a.341.341,0,0,0,.136.065" transform="translate(-58.953 -0.001)" fill="#718fc6"/>
  </g>
</svg>
