<?xml version="1.0" encoding="UTF-8"?><svg id="uuid-b0c76ef7-26f6-433f-8b3d-a2bba0974670" xmlns="http://www.w3.org/2000/svg" width="75" height="75" xmlns:xlink="http://www.w3.org/1999/xlink" viewBox="0 0 75 75"><defs><style>.uuid-8c760118-8ca9-408f-98f1-5559fab8041e{fill:none;}.uuid-e8bee6ed-3752-4ce3-a3e8-7b6a5a69e693{fill:#1f2f50;}.uuid-6d2a5af2-f8c2-4d81-a013-a3a11b333dd2{clip-path:url(#uuid-fc7de415-4b66-42fc-83c2-bb07d3d8c500);}</style><clipPath id="uuid-fc7de415-4b66-42fc-83c2-bb07d3d8c500"><rect class="uuid-8c760118-8ca9-408f-98f1-5559fab8041e" width="75" height="75"/></clipPath></defs><g class="uuid-6d2a5af2-f8c2-4d81-a013-a3a11b333dd2"><g id="uuid-f15a6c4e-f9d3-4e38-bd69-350b8c0d9226"><path id="uuid-382f3f45-0bf1-4b09-9445-9cb84adccddb" class="uuid-e8bee6ed-3752-4ce3-a3e8-7b6a5a69e693" d="M75,52.86c-.26.89-.44,1.81-.55,2.73-1.01,4.69-3.35,8.99-6.75,12.37-1.97,2-3.97,3.97-5.96,5.95-1.15,1.3-3.14,1.42-4.44.27-1.3-1.15-1.42-3.14-.27-4.44.09-.1.18-.19.27-.27,1.91-1.92,3.83-3.83,5.75-5.75,3.69-3.56,5.74-8.49,5.66-13.62,0-10.44-.01-20.88,0-31.32.02-1.33-.82-2.52-2.08-2.95-1.26-.43-2.66,0-3.46,1.05-.45.61-.67,1.36-.63,2.12,0,8.07-.03,16.15-.03,24.22.08,2.76-.99,5.43-2.95,7.37-2.47,2.47-4.83,5.04-7.27,7.52-1.17,1.26-3.14,1.34-4.4.17-.45-.42-.77-.96-.91-1.56-.3-1.11.05-2.29.9-3.07,2.51-2.6,5.01-5.2,7.51-7.81,1.18-1.2,1.16-3.12-.04-4.29-.34-.34-.76-.58-1.21-.73-1.05-.4-2.24-.16-3.06.63-3.17,2.9-6.32,5.82-9.49,8.71-.26.17-.33.52-.17.78,0,0,.01.02.02.02,1.67,3.37,2.49,7.1,2.37,10.86-.05,3.32,0,6.63-.01,9.95.02,1.36-.83,2.58-2.11,3.03-1.23.44-2.61.06-3.44-.94-.49-.58-.76-1.32-.74-2.08.01-3.49,0-6.98,0-10.47.13-4.77-1.89-9.35-5.5-12.47-2.67-2.4-5.29-4.84-7.92-7.28-.84-.86-2.1-1.15-3.23-.73-1.13.35-1.94,1.34-2.05,2.52-.13.98.22,1.97.95,2.65,2.58,2.67,5.16,5.33,7.71,8.02,1.23,1.19,1.26,3.15.08,4.38-.35.36-.77.63-1.25.79-1.1.45-2.36.18-3.18-.68-2.82-2.88-5.64-5.75-8.36-8.71-1.5-1.7-2.28-3.92-2.2-6.18-.02-8.24-.05-16.49-.1-24.73.04-1.71-1.32-3.12-3.03-3.16-1.6-.03-2.96,1.16-3.14,2.75,0,.17,0,.34,0,.51,0,10.59-.03,21.17.02,31.76,0,4.63,1.82,9.08,5.07,12.39,2.08,2.19,4.28,4.28,6.4,6.44,1.27,1.16,1.35,3.13.18,4.4-.4.44-.92.75-1.49.9-.97.35-2.06.13-2.81-.58-3.14-3.19-6.64-6.07-9.24-9.77C1.55,60.48.01,55.65.02,50.69c-.03-10.68-.02-21.37,0-32.05.06-4.73,3.62-8.68,8.31-9.23,5.14-.59,9.79,3.1,10.38,8.24.04.35.06.71.06,1.07-.01,5.17,0,10.34-.02,15.51,0,.58.09.65.67.5,3.16-.92,6.57-.08,8.94,2.2,2.95,2.7,5.89,5.43,8.8,8.17.39.37.52.09.74-.1,2.84-2.61,5.7-5.2,8.51-7.83,2.44-2.47,6.04-3.39,9.36-2.39.65.17.49-.2.49-.5,0-5.15.06-10.29-.01-15.44-.03-4.87,3.65-8.96,8.5-9.43,4.94-.5,9.4,2.96,10.14,7.87.01.05.08.1.12.15v35.42Z"/><path id="uuid-f8a6d26f-daed-408d-b8f5-ca0ace8eb18d" class="uuid-e8bee6ed-3752-4ce3-a3e8-7b6a5a69e693" d="M46.46.45c3.59,1.18,6.16,4.35,6.57,8.1.52,3.22-.64,6.03-2.32,8.66-2.59,3.88-5.85,7.27-9.62,10.02-2.07,1.58-4.93,1.61-7.04.08-4.2-2.99-7.75-6.81-10.41-11.23-1.92-3.4-2.49-6.94-.74-10.59,1.21-2.69,3.62-4.65,6.49-5.3,1.05-.17,2.12-.23,3.18-.17,1.69.2,3.29.89,4.6,1.99.16.19.43.21.62.05.02-.02.04-.03.05-.05.93-.74,2-1.29,3.14-1.63,1.8-.48,3.69-.46,5.48.06M46.88,9.86c-.05-.28-.1-.7-.21-1.09-.34-1.57-1.81-2.64-3.41-2.46-1.55.15-2.42,1.16-2.61,2.99-.02.17-.04.34-.06.51-.24,1.71-1.82,2.91-3.54,2.67-1.13-.16-2.09-.92-2.5-2-.15-.47-.23-.95-.24-1.43-.02-1.32-.97-2.44-2.27-2.68-1.25-.32-2.56.21-3.22,1.32-.6.87-.82,1.95-.62,2.99.17.86.48,1.68.94,2.43,2.06,3.51,5.01,6.2,8.09,8.77.25.21.41.14.62-.05.58-.52,1.2-1,1.77-1.53,2.32-1.98,4.35-4.28,6.01-6.84.71-1.08,1.13-2.32,1.23-3.6"/></g></g></svg>