<svg xmlns="http://www.w3.org/2000/svg" width="31" height="29.767" viewBox="0 0 31 29.767">
  <path id="Trazado_869" data-name="Trazado 869" d="M6.3,8.975c1.075,0,2.151-.025,3.225.01a.944.944,0,0,0,1.063-.73q1.152-3.219,2.377-6.413A2.644,2.644,0,0,1,16.653.275a2.762,2.762,0,0,1,1.411,1.654c.773,2.1,1.577,4.185,2.328,6.291a.988.988,0,0,0,1.1.767c2.084-.032,4.168-.009,6.252-.014a4.49,4.49,0,0,1,1.429.186,2.465,2.465,0,0,1,1.746,1.889A2.613,2.613,0,0,1,30,13.766c-1.7,1.416-3.428,2.808-5.145,4.207-.826.674-.827.671-.494,1.688.71,2.166,1.437,4.327,2.122,6.5a2.606,2.606,0,0,1-1.79,3.475,2.837,2.837,0,0,1-2.372-.472c-2.052-1.351-4.123-2.672-6.167-4.034a.936.936,0,0,0-1.229-.01q-3.062,2.108-6.172,4.146a2.708,2.708,0,0,1-4.024-1.02A3.046,3.046,0,0,1,4.693,26c.7-2.239,1.381-4.482,2.105-6.713A.872.872,0,0,0,6.46,18.17c-1.788-1.416-3.549-2.867-5.322-4.3a2.691,2.691,0,0,1,1.742-4.88c1.14-.036,2.281-.007,3.422-.007V8.975" transform="translate(0 0)" fill="#1f3c75"/>
</svg>
