<svg xmlns="http://www.w3.org/2000/svg" width="31" height="30" viewBox="0 0 31 30">
  <defs>
    <style>
      .cls-1 {
        fill: #1f3c75;
      }
    </style>
  </defs>
  <path id="Trazado_868" data-name="Trazado 868" class="cls-1" d="M6.3,9.046c1.075,0,2.151-.026,3.225.01a.945.945,0,0,0,1.063-.736q1.152-3.245,2.377-6.463A2.638,2.638,0,0,1,16.653.277a2.778,2.778,0,0,1,1.411,1.667c.773,2.115,1.577,4.218,2.328,6.34a.989.989,0,0,0,1.1.773c2.084-.032,4.168-.009,6.252-.014a4.457,4.457,0,0,1,1.429.188,2.477,2.477,0,0,1,1.746,1.9A2.645,2.645,0,0,1,30,13.874c-1.7,1.427-3.428,2.83-5.145,4.24-.826.679-.827.677-.494,1.7.71,2.183,1.437,4.361,2.122,6.552a2.629,2.629,0,0,1-1.79,3.5,2.819,2.819,0,0,1-2.372-.476C20.27,28.032,18.2,26.7,16.155,25.328a.931.931,0,0,0-1.229-.01Q11.864,27.443,8.754,29.5A2.7,2.7,0,0,1,4.73,28.469,3.092,3.092,0,0,1,4.693,26.2c.7-2.257,1.381-4.517,2.105-6.765a.882.882,0,0,0-.339-1.126c-1.788-1.427-3.549-2.89-5.322-4.336A2.707,2.707,0,0,1,.015,11.5,2.676,2.676,0,0,1,2.879,9.058c1.14-.037,2.281-.007,3.422-.007V9.046" transform="translate(0 0)"/>
</svg>
